<svg xmlns="http://www.w3.org/2000/svg" viewBox="0 0 1200 520" role="img" aria-labelledby="title desc">
    <title id="title">Events and team collaboration</title>
    <desc id="desc">A team planning technology events around a calendar, presentation board, and project tasks.</desc>
    <defs>
        <linearGradient id="bg" x1="0" x2="1" y1="0" y2="1">
            <stop offset="0" stop-color="#0f2b4f"/>
            <stop offset="0.55" stop-color="#245c97"/>
            <stop offset="1" stop-color="#18a999"/>
        </linearGradient>
        <filter id="shadow" x="-20%" y="-20%" width="140%" height="140%">
            <feDropShadow dx="0" dy="18" stdDeviation="16" flood-color="#07192d" flood-opacity="0.35"/>
        </filter>
    </defs>
    <rect width="1200" height="520" fill="url(#bg)"/>
    <path d="M0 395 C140 345 240 390 360 330 C520 250 650 380 805 285 C960 190 1050 230 1200 150 L1200 520 L0 520 Z" fill="#ffffff" opacity="0.12"/>

    <g filter="url(#shadow)">
        <rect x="135" y="120" width="345" height="280" rx="24" fill="#f8fbff"/>
        <rect x="165" y="155" width="285" height="50" rx="14" fill="#1e3c72"/>
        <rect x="170" y="235" width="54" height="44" rx="10" fill="#dce9f8"/>
        <rect x="242" y="235" width="54" height="44" rx="10" fill="#25a18e"/>
        <rect x="314" y="235" width="54" height="44" rx="10" fill="#dce9f8"/>
        <rect x="386" y="235" width="54" height="44" rx="10" fill="#ffb547"/>
        <rect x="170" y="300" width="54" height="44" rx="10" fill="#dce9f8"/>
        <rect x="242" y="300" width="54" height="44" rx="10" fill="#7a4fb3"/>
        <rect x="314" y="300" width="54" height="44" rx="10" fill="#dce9f8"/>
        <rect x="386" y="300" width="54" height="44" rx="10" fill="#25a18e"/>

        <rect x="560" y="115" width="505" height="285" rx="24" fill="#f8fbff"/>
        <rect x="595" y="155" width="210" height="26" rx="13" fill="#1e3c72"/>
        <rect x="595" y="205" width="405" height="16" rx="8" fill="#d2e0f0"/>
        <rect x="595" y="245" width="330" height="16" rx="8" fill="#d2e0f0"/>
        <rect x="595" y="285" width="370" height="16" rx="8" fill="#d2e0f0"/>
        <rect x="595" y="335" width="150" height="32" rx="16" fill="#25a18e"/>
    </g>

    <g font-family="Segoe UI, Arial, sans-serif">
        <text x="222" y="189" font-size="27" font-weight="700" fill="#ffffff">Events</text>
        <text x="618" y="179" font-size="27" font-weight="700" fill="#ffffff">Team Plan</text>
        <text x="615" y="359" font-size="20" font-weight="700" fill="#ffffff">Ready</text>
    </g>

    <g>
        <circle cx="515" cy="390" r="34" fill="#ffcf9f"/>
        <path d="M470 455 C476 414 553 414 560 455 L566 500 H463 Z" fill="#244b7c"/>
        <circle cx="675" cy="405" r="32" fill="#8fd6ff"/>
        <path d="M633 466 C640 427 711 427 718 466 L724 500 H627 Z" fill="#1b786f"/>
        <circle cx="830" cy="390" r="34" fill="#ffd4b3"/>
        <path d="M786 455 C792 414 869 414 876 455 L882 500 H779 Z" fill="#7a4fb3"/>
    </g>

    <g fill="none" stroke="#9ee8ff" stroke-width="5" opacity="0.55" stroke-linecap="round">
        <path d="M80 120 H145"/>
        <path d="M1020 82 H1110 V142"/>
        <path d="M95 430 H190 V380"/>
        <circle cx="80" cy="120" r="8" fill="#9ee8ff"/>
        <circle cx="1110" cy="142" r="8" fill="#9ee8ff"/>
    </g>
</svg>
