<svg xmlns="http://www.w3.org/2000/svg" viewBox="0 0 1200 520" role="img" aria-labelledby="title desc">
    <title id="title">Students building technology projects</title>
    <desc id="desc">A technology club workspace with laptops, code panels, circuit patterns, and students collaborating.</desc>
    <defs>
        <linearGradient id="bg" x1="0" x2="1" y1="0" y2="1">
            <stop offset="0" stop-color="#10233f"/>
            <stop offset="0.55" stop-color="#245c97"/>
            <stop offset="1" stop-color="#18a999"/>
        </linearGradient>
        <linearGradient id="screen" x1="0" x2="1">
            <stop offset="0" stop-color="#eaf4ff"/>
            <stop offset="1" stop-color="#bde7ff"/>
        </linearGradient>
        <filter id="shadow" x="-20%" y="-20%" width="140%" height="140%">
            <feDropShadow dx="0" dy="18" stdDeviation="16" flood-color="#07192d" flood-opacity="0.35"/>
        </filter>
    </defs>

    <rect width="1200" height="520" fill="url(#bg)"/>
    <path d="M0 380 C180 310 300 430 470 345 C650 255 770 350 930 300 C1060 260 1130 210 1200 250 L1200 520 L0 520 Z" fill="#ffffff" opacity="0.14"/>
    <path d="M0 70 H1200" stroke="#ffffff" stroke-opacity="0.09" stroke-width="2"/>
    <path d="M0 165 H1200" stroke="#ffffff" stroke-opacity="0.08" stroke-width="2"/>
    <path d="M0 260 H1200" stroke="#ffffff" stroke-opacity="0.08" stroke-width="2"/>
    <path d="M0 355 H1200" stroke="#ffffff" stroke-opacity="0.08" stroke-width="2"/>

    <g opacity="0.55" stroke="#9ee8ff" stroke-width="4" fill="none">
        <path d="M93 98 H190 V150 H280"/>
        <circle cx="93" cy="98" r="9" fill="#9ee8ff"/>
        <circle cx="280" cy="150" r="9" fill="#9ee8ff"/>
        <path d="M1015 82 H940 V132 H860"/>
        <circle cx="1015" cy="82" r="9" fill="#9ee8ff"/>
        <circle cx="860" cy="132" r="9" fill="#9ee8ff"/>
        <path d="M980 405 H1065 V350 H1130"/>
        <circle cx="980" cy="405" r="9" fill="#9ee8ff"/>
        <circle cx="1130" cy="350" r="9" fill="#9ee8ff"/>
    </g>

    <g filter="url(#shadow)">
        <rect x="170" y="150" width="860" height="300" rx="28" fill="#f7fbff"/>
        <rect x="205" y="185" width="510" height="215" rx="18" fill="#17243a"/>
        <rect x="230" y="212" width="460" height="160" rx="12" fill="url(#screen)"/>
        <rect x="760" y="190" width="225" height="210" rx="18" fill="#eef5ff"/>
        <rect x="800" y="220" width="145" height="18" rx="9" fill="#245c97"/>
        <rect x="800" y="258" width="105" height="14" rx="7" fill="#18a999"/>
        <rect x="800" y="292" width="150" height="14" rx="7" fill="#84a6c7"/>
        <rect x="800" y="326" width="120" height="14" rx="7" fill="#84a6c7"/>
        <rect x="800" y="360" width="85" height="14" rx="7" fill="#ffb547"/>
    </g>

    <g font-family="Consolas, 'Courier New', monospace" font-size="25" font-weight="700">
        <text x="260" y="265" fill="#1e3c72">&lt;build&gt;</text>
        <text x="260" y="305" fill="#0f7f73">club.create(projects);</text>
        <text x="260" y="345" fill="#1e3c72">&lt;/build&gt;</text>
    </g>

    <g>
        <circle cx="430" cy="120" r="36" fill="#ffcf9f"/>
        <path d="M378 184 C382 145 478 145 484 184 L498 272 H362 Z" fill="#244b7c"/>
        <rect x="382" y="236" width="122" height="76" rx="10" fill="#d8eaf8"/>
        <rect x="403" y="254" width="80" height="12" rx="6" fill="#245c97"/>
        <rect x="418" y="276" width="50" height="10" rx="5" fill="#18a999"/>
    </g>

    <g>
        <circle cx="610" cy="122" r="35" fill="#8fd6ff"/>
        <path d="M558 187 C565 146 654 146 662 187 L677 272 H545 Z" fill="#1b786f"/>
        <rect x="565" y="235" width="120" height="76" rx="10" fill="#d8eaf8"/>
        <rect x="588" y="253" width="78" height="12" rx="6" fill="#245c97"/>
        <rect x="602" y="276" width="52" height="10" rx="5" fill="#ffb547"/>
    </g>

    <g>
        <circle cx="780" cy="125" r="34" fill="#ffd4b3"/>
        <path d="M730 188 C736 150 820 150 830 188 L844 272 H715 Z" fill="#7a4fb3"/>
        <rect x="742" y="236" width="116" height="76" rx="10" fill="#d8eaf8"/>
        <rect x="765" y="254" width="72" height="12" rx="6" fill="#245c97"/>
        <rect x="778" y="276" width="46" height="10" rx="5" fill="#18a999"/>
    </g>

    <g fill="#ffffff" opacity="0.95">
        <circle cx="928" cy="115" r="8"/>
        <circle cx="952" cy="115" r="8"/>
        <circle cx="976" cy="115" r="8"/>
    </g>
</svg>
